PathFileType	4	(X/Y/Z)	C:/Users/beibeiliu/ov580/test_trc/User2\sequence.22_training_dense_right.trc
DataRate	CameraRate	NumFrames	NumMarkers	Units	OrigDataRate	OrigDataStartFrame	OrigNumFrames
120	120	20	19	mm	120	92	364
Frame#	Time	ThumbCMC			ThumbMCP			ThumbIP			ThumbTip			IndexMCP			IndexPIP			IndexTip			MiddleMCP			MiddlePIP			MiddleTip			RingMCP			RingPIP			RingTip			PinkyMCP			PinkyPIP			PinkyTip			BackHand1			BackHand2			BackHand3	
		X0	Y0	Z0	X1	Y1	Z1	X2	Y2	Z2	X3	Y3	Z3	X4	Y4	Z4	X5	Y5	Z5	X6	Y6	Z6	X7	Y7	Z7	X8	Y8	Z8	X9	Y9	Z9	X10	Y10	Z10	X11	Y11	Z11	X12	Y12	Z12	X13	Y13	Z13	X14	Y14	Z14	X15	Y15	Z15	X16	Y16	Z16	X17	Y17	Z17	X18	Y18	Z18	
91	0.758333	62.8241	31.9084	53.5745	33.3105	39.339	30.8555	10.9457	37.8399	10.1395	-7.61015	37.441	-9.43278	36.2579	19.6326	-16.8747	4.63994	13.2456	-4.05539	5.03133	4.60689	28.7848	36.2351	-5.54647	-17.1164	8.95132	-6.04667	7.95701	36.8624	1.22659	34.0264	31.7057	-24.3968	-11.0416	7.46392	-24.477	12.9963	25.7883	-12.7126	39.1821	55.0272	-45.2084	-9.39182	35.802	-44.1101	-30.5717	23.7612	-43.1671	-47.426	90.2557	-22.7548	20.3055	105.174	-21.8116	54.4677	95.7511	14.5411	37.9387	
92	0.766667	67.3458	33.6268	47.3488	40.8959	37.8951	28.1752	17.2078	43.6962	3.41522	0.874482	38.1807	-14.7184	39.366	21.2103	-19.4364	6.74247	17.7044	-7.15528	7.27889	9.70582	26.6617	36.3666	-5.49452	-19.5497	9.12097	-0.254738	4.25502	35.2387	-1.14652	32.7278	29.7807	-22.5643	-10.9246	5.47486	-20.0182	7.60845	28.0193	-11.6641	41.2823	48.9173	-45.7453	-12.2155	34.4696	-43.6661	-26.9073	19.393	-42.3365	-49.4886	88.1726	-28.7133	21.3686	103.127	-28.2832	55.0711	96.4669	8.30706	35.0356	
93	0.775	75.1978	30.3095	42.6932	48.4853	41.6497	22.7858	26.0863	42.0093	-6.88938	7.50177	44.1629	-22.0942	44.3083	14.6044	-23.7288	12.6151	19.8047	-13.1745	12.5488	13.0828	24.3528	39.039	-8.05941	-21.3093	8.76517	-2.29162	3.58263	36.2607	2.7509	31.394	26.4654	-25.2934	-9.73187	5.58135	-16.3317	8.80173	24.5584	-6.11846	37.0557	43.9859	-48.784	-7.86573	28.0422	-49.0963	-26.3806	13.3408	-45.8664	-47.3719	83.9804	-38.4835	20.9732	100.397	-30.4141	56.1341	100.531	-0.538909	27.9985	
94	0.783333	82.2469	24.68	40.609	58.4384	38.5875	17.7983	34.4698	39.9267	-13.0854	15.0074	36.5643	-29.7592	45.4993	3.72094	-26.8669	15.47	14.4061	-14.8597	18.2256	20.1673	18.8942	36.3455	-15.316	-22.2043	9.66112	-0.556963	0.559375	35.0655	2.85141	31.5717	22.9229	-29.5214	-8.70803	4.73964	-15.5644	11.465	26.6352	-8.48625	39.6713	39.7157	-50.9726	-1.99573	22.0034	-49.4274	-22.8812	6.45866	-48.432	-45.9804	78.7876	-45.6505	23.9741	94.9081	-41.2768	52.2914	104.073	-9.48975	28.8806	
95	0.791667	88.4661	18.6495	31.6003	66.6746	32.5677	8.85005	40.9484	32.3714	-21.033	23.3623	29.7819	-33.0329	49.8133	-4.06232	-30.3761	19.2597	10.2071	-19.508	24.1862	19.1048	13.4958	34.8031	-25.4891	-20.1132	9.53618	-1.19541	-3.73518	31.0002	2.91214	30.4346	22.6927	-32.5314	-7.39697	5.3533	-12.5665	10.2645	29.9214	-7.30819	37.2764	32.195	-55.5274	-0.149632	12.2493	-53.6378	-19.6936	-1.08509	-51.4662	-37.7793	76.712	-52.3602	25.389	93.0421	-48.7007	54.1879	99.9522	-24.5024	24.4871	
96	0.8	93.8956	9.01938	24.5183	70.1772	17.6606	1.9818	48.8201	23.2668	-23.1907	29.0785	24.1217	-40.3465	48.5511	-13.4351	-33.6804	23.6449	6.94567	-27.0359	25.7314	14.4634	8.7823	29.2748	-26.2554	-22.5153	8.62854	-3.40978	-3.94762	30.5159	6.68126	25.8924	17.5583	-37.5129	-3.98891	6.23428	-9.76768	12.4516	35.7998	-6.02394	32.4233	22.6974	-61.7329	6.64717	6.59301	-52.3411	-16.3105	-6.6177	-54.5439	-32.3239	70.975	-57.6039	29.2706	89.5794	-53.3615	54.0087	100.822	-33.6908	26.1097	
97	0.808333	96.231	0.268273	20.7137	75.2336	8.33211	-1.16717	55.5517	16.6643	-29.9856	34.4322	15.3769	-45.3755	45.9816	-25.4728	-33.0954	24.3708	-0.646978	-28.0632	30.7513	13.0593	4.00078	27.3511	-31.8103	-22.9828	12.1873	-2.95261	-9.62124	35.705	5.72471	23.3827	12.3762	-36.9646	-4.74664	3.58927	-12.1905	8.62727	32.1605	-8.8094	32.2255	19.2439	-59.8592	8.92013	-2.39615	-56.3395	-11.7739	-15.8761	-54.7715	-31.4927	62.3168	-64.255	31.7238	84.6153	-60.2781	56.5377	97.2407	-43.1009	23.9126	
98	0.816667	100.045	-7.52229	21.0779	80.4373	3.33573	-3.80075	58.3146	5.00239	-30.686	39.7577	8.32501	-51.7338	44.6248	-33.1888	-32.6281	24.5388	-7.1039	-29.9219	36.4568	13.4763	-0.955992	24.589	-38.3294	-20.9528	13.0865	-3.64366	-9.64608	36.8736	5.35277	16.9975	12.4424	-41.4978	-2.99405	4.6346	-12.0284	4.07965	31.6375	-7.2909	27.1284	12.3063	-62.1677	14.7716	-1.76541	-53.8392	-12.218	-16.6309	-50.5511	-29.6218	60.5734	-65.4314	35.0229	80.5594	-62.6843	62.9243	93.9281	-50.4821	23.0264	
99	0.825	101.173	-16.6794	18.3757	81.655	-5.7271	-5.54653	60.5739	-3.21284	-36.0914	44.4985	1.50228	-56.1369	46.9029	-37.0525	-34.1493	29.6415	-10.1022	-35.2972	39.9437	9.18595	-3.51696	26.2967	-40.2757	-22.9208	15.6657	-7.46041	-14.2406	42.1206	2.64559	13.9608	11.0157	-40.6155	-4.6861	5.8046	-10.532	3.31174	32.2584	-7.89304	26.484	8.8744	-61.325	13.3585	-7.38644	-55.0371	-7.72028	-16.9646	-51.3409	-30.3356	53.2775	-67.7883	36.6135	74.9583	-65.9199	65.6254	91.0719	-55.9474	26.969	
100	0.833333	100.839	-21.3138	20.4164	85.4488	-9.58732	-8.27719	65.5421	-4.68808	-35.7256	46.1682	-4.74453	-53.8443	44.3426	-41.1999	-32.2689	30.1954	-9.82412	-34.6895	39.6992	6.48883	-6.86382	25.3959	-42.1413	-19.6587	17.3316	-6.89628	-12.854	43.4689	0.0223163	14.0238	10.9111	-43.4935	-4.3397	7.80677	-10.4119	-2.04877	36.5441	-9.311	24.2162	10.5267	-59.0078	15.5095	-2.8245	-53.7622	-7.36149	-19.096	-50.0104	-28.6312	54.1503	-67.5669	37.8689	71.5101	-66.5683	66.3954	89.2636	-61.6988	28.9983	
101	0.841667	100.335	-23.7479	17.2708	82.3963	-13.7681	-7.0981	64.4208	-9.12011	-39.1455	51.9388	-2.48864	-54.7479	45.467	-39.8632	-35.588	31.8723	-10.8908	-36.111	43.562	6.34883	-4.34393	23.7394	-40.693	-20.494	19.3215	-7.28657	-15.1831	48.083	-1.82174	15.7978	11.9404	-42.3718	-7.43621	8.00134	-11.3069	-3.18329	35.8632	-9.29657	21.0962	11.221	-56.8925	16.1314	-5.71641	-52.2319	-8.73264	-18.7797	-49.9488	-29.7544	52.0756	-67.3119	42.3591	72.6523	-64.2198	66.7173	85.975	-62.6928	30.9011	
102	0.85	97.2379	-23.6326	22.4688	83.6768	-11.6072	-6.11579	63.0089	-7.55737	-37.3733	48.1785	-1.82908	-50.1829	43.4957	-41.4005	-31.1863	27.9102	-12.0291	-33.3544	40.8054	5.84667	-3.21139	22.8509	-41.8217	-17.6719	16.668	-5.04171	-10.1945	45.79	-4.55008	21.2207	8.99911	-43.3595	-2.48568	5.47039	-11.6705	-2.11731	32.9928	-9.23952	22.764	7.5384	-57.9365	14.5434	-8.15527	-52.4705	-6.1952	-21.7054	-47.9415	-26.2758	48.7464	-69.182	38.6314	70.602	-66.3257	69.7719	84.2222	-62.3524	33.0572	
103	0.858333	97.8468	-18.8573	23.7147	79.8027	-8.25125	-2.23577	58.4763	-4.44048	-29.7425	40.0229	-1.01189	-50.1473	36.5362	-37.5039	-28.5873	24.7029	-6.32183	-28.872	39.8901	9.01302	-0.295588	18.3711	-39.9783	-12.9358	14.4809	-3.66945	-7.37151	41.7645	-1.10743	19.9671	5.73112	-40.0762	-1.69425	1.12584	-11.3679	3.99564	28.8605	-10.5719	28.1261	3.82292	-58.879	17.4289	-8.67753	-53.0837	-3.0275	-22.7363	-47.4883	-23.7825	46.9002	-68.9989	42.4265	71.0981	-66.1709	68.6581	86.8736	-58.9246	31.3513	
104	0.866667	90.1863	-14.3307	29.6257	74.074	-1.39129	-1.80774	49.2843	0.907165	-25.1079	30.4605	4.67269	-39.5378	36.061	-32.6932	-27.6985	17.2416	-2.08388	-24.9459	29.2147	9.24793	6.61813	15.2813	-35.4605	-14.4679	4.6234	-3.65736	-1.20879	33.0315	-0.528058	27.1383	0.379479	-39.2481	4.56886	-1.22626	-8.00011	10.9112	25.4006	-13.7595	35.7825	4.12385	-59.374	22.7522	-13.7741	-53.1159	0.900867	-28.0277	-43.642	-23.0023	49.3537	-67.5166	45.1251	70.5319	-64.0799	70.8967	81.5888	-54.0468	35.2879	
105	0.875	83.581	-8.2771	30.4413	63.3956	6.55439	4.66118	37.3766	10.4434	-20.7919	15.656	10.3448	-33.0479	26.1171	-25.8387	-23.8471	7.25891	-0.419252	-17.9919	18.5296	11.5014	12.3965	8.08482	-33.4489	-7.55294	-5.3933	-4.55817	4.98181	24.8809	1.47734	33.3975	-4.73162	-36.118	8.0194	-7.2126	-8.47921	19.8509	20.7951	-12.1813	39.0638	1.26539	-60.1203	25.0253	-18.6208	-52.1048	2.37883	-34.5397	-44.1099	-13.6088	46.326	-65.4496	42.7566	71.7874	-62.7783	66.9897	79.1564	-47.2601	30.6896	
106	0.883333	77.2379	1.63368	33.1603	53.2119	14.3734	11.7577	24.3231	16.0409	-11.2359	3.79582	17.8507	-20.3456	16.0926	-21.5711	-16.056	-4.73706	-1.07311	-8.51702	10.2938	9.46985	25.0536	-1.19387	-31.5904	0.270271	-14.7717	-2.98664	17.4833	18.8099	1.84044	43.7235	-10.3222	-37.2744	14.4628	-16.9193	-12.1849	28.5531	14.5834	-13.0595	44.3481	-2.98418	-62.3481	31.8557	-28.1902	-56.604	11.4837	-45.104	-50.67	-1.39963	43.4367	-66.7231	45.3374	69.2483	-62.4862	70.1751	74.3888	-42.6063	31.495	
107	0.891667	67.6959	8.4847	39.4198	39.3149	16.9771	21.3697	10.4698	19.9859	-1.21943	-10.775	23.2836	-12.828	9.81072	-14.5361	-12.4985	-12.4743	7.52086	2.06636	9.80901	7.3839	33.3793	-7.98437	-27.4075	3.34834	-21.599	-2.33663	23.7949	6.4783	0.586073	51.5328	-14.7622	-36.9742	20.5928	-23.6341	-13.8037	41.2814	9.20543	-14.3226	50.9558	-8.7725	-62.7712	32.8721	-28.7751	-59.2739	19.1617	-49.8627	-53.135	2.23865	41.2981	-62.0969	46.6307	67.4643	-57.2676	65.658	71.0603	-34.9596	34.7002	
108	0.9	59.0682	12.0667	46.5481	28.9817	23.9247	25.9079	0.120949	29.4169	6.83105	-22.3589	26.107	-2.642	4.23897	-9.20494	-6.72961	-18.4966	7.99741	13.9113	9.69182	5.86964	37.4119	-6.77723	-26.2875	6.40841	-29.3856	-6.68105	30.5275	3.19172	1.15714	53.7127	-20.5386	-35.0155	24.285	-28.5105	-15.7702	46.7901	7.31548	-16.8176	59.2387	-11.7723	-61.6896	31.5262	-30.9517	-58.1085	21.0757	-54.1306	-57.8781	6.8155	40.8225	-57.9235	47.0803	67.985	-51.6126	64.1067	68.4905	-28.808	34.9267	
109	0.908333	52.5265	20.2688	51.0159	22.5511	28.1834	36.8131	-9.78653	30.8329	15.0831	-31.2739	28.9121	5.04168	2.75242	-0.473414	-2.89081	-21.6238	9.96567	16.8133	9.53014	5.16003	41.0107	-13.5116	-23.7566	8.31029	-29.7616	-3.99714	30.8269	1.21511	-3.06435	56.5618	-20.3162	-36.7396	26.0768	-32.0056	-19.599	47.4931	2.28848	-14.934	62.5056	-7.28678	-58.7743	28.0301	-32.6273	-57.8652	17.5746	-52.924	-54.592	4.78346	43.0704	-51.3894	43.3654	68.1992	-48.8957	64.7805	65.5211	-19.0724	39.7953	
110	0.916667	44.3487	25.8349	56.0447	12.9774	32.6312	43.9337	-15.0405	38.2409	24.5482	-38.0167	35.2181	9.71848	0.456181	2.9717	0.674509	-23.254	9.39768	23.4513	6.07928	10.132	43.6061	-7.47934	-15.5624	5.47182	-28.8528	-6.41215	36.3756	5.33105	-3.43748	55.848	-14.4943	-34.2735	21.7673	-29.5749	-16.7195	46.7553	-1.17851	-12.7661	62.5174	-2.54978	-56.3036	21.6194	-25.8013	-52.079	10.8225	-47.9697	-55.269	-2.59653	47.2295	-45.007	41.2705	70.311	-39.4354	66.4926	65.3626	-8.93305	39.3059	
